<svg width="64" height="64" viewBox="0 0 64 64" fill="none" xmlns="http://www.w3.org/2000/svg">
<g clip-path="url(#clip0_692_4771)">
<path d="M32 1.53027C15.18 1.53027 1.5 15.2103 1.5 32.0303C1.5 48.8503 15.18 62.5303 32 62.5303C48.82 62.5303 62.5 48.8503 62.5 32.0303C62.5 15.2103 48.82 1.53027 32 1.53027ZM32 59.5303C16.84 59.5303 4.5 47.1903 4.5 32.0303C4.5 16.8702 16.84 4.53027 32 4.53027C47.16 4.53027 59.5 16.8703 59.5 32.0303C59.5 47.1902 47.16 59.5303 32 59.5303Z" fill="#E8F5FC"/>
<path d="M38.3186 10.46L25.6986 12.17L21.3286 18.79L13.2986 23.56L9.80859 31.07L14.6286 38.2L21.2586 38.75L22.5686 37.56L28.0786 42.71V54.01H32.0786V45.14L38.9486 38.27V37.46L41.6486 38.99L50.8186 32.22L51.2886 19.88L38.3186 10.46L38.3186 10.46ZM24.8086 35.55L25.7786 34.67L28.0786 34.72V38.6L24.8086 35.55V35.55ZM35.9486 37.02L32.0786 40.9V34.82L34.3786 34.87L35.9486 35.76V37.02V37.02ZM47.8786 30.66L41.4286 35.42L35.1986 31.89L24.6486 31.65L20.2086 35.66L16.3086 35.33L13.2486 30.8L15.6286 25.67L23.4486 21.01L27.4486 14.96L37.5286 13.59L48.2286 21.36L47.8786 30.66V30.66Z" fill="#E8F5FC"/>
</g>
<defs>
<clipPath id="clip0_692_4771">
<rect width="64" height="64" fill="white"/>
</clipPath>
</defs>
</svg>
