<svg width="64" height="64" viewBox="0 0 64 64" fill="none" xmlns="http://www.w3.org/2000/svg">
<g clip-path="url(#clip0_692_4775)">
<path d="M31.9688 1.46973C15.1488 1.46973 1.46875 15.1497 1.46875 31.9697C1.46875 48.7897 15.1488 62.4697 31.9688 62.4697C48.7887 62.4697 62.4688 48.7897 62.4688 31.9697C62.4688 15.1497 48.7888 1.46973 31.9688 1.46973ZM31.9688 59.4697C16.8088 59.4697 4.46875 47.1298 4.46875 31.9697C4.46875 16.8097 16.8088 4.46973 31.9688 4.46973C47.1287 4.46973 59.4688 16.8098 59.4688 31.9697C59.4688 47.1297 47.1288 59.4697 31.9688 59.4697V59.4697Z" fill="#E8F5FC"/>
<path d="M27.923 30.9836L24.7578 27.8184L21.5926 30.9836L24.7578 34.1488L27.923 30.9836Z" fill="#E8F5FC"/>
<path d="M42.3488 30.9836L39.1836 27.8184L36.0184 30.9836L39.1836 34.1488L42.3488 30.9836Z" fill="#E8F5FC"/>
<path d="M41.3111 15.0996H22.6911L14.8711 22.9196V40.9497H22.1411V48.8996H41.8311V40.9497H49.1311V22.9196L41.3111 15.0996L41.3111 15.0996ZM46.1311 37.9497H38.8311V45.8996H36.2711V41.7196H33.2711V45.8996H30.6711V41.7196H27.6711V45.8996H25.1411V37.9497H17.8711V24.1596L23.9411 18.0996H40.0611L46.1311 24.1596V37.9497V37.9497Z" fill="#E8F5FC"/>
</g>
<defs>
<clipPath id="clip0_692_4775">
<rect width="64" height="64" fill="white"/>
</clipPath>
</defs>
</svg>
