<svg width="64" height="64" viewBox="0 0 64 64" fill="none" xmlns="http://www.w3.org/2000/svg">
<g clip-path="url(#clip0_692_4781)">
<path d="M32 62.5298C15.1821 62.5298 1.5 48.8481 1.5 32.0303C1.5 15.2124 15.1821 1.53027 32 1.53027C48.8179 1.53027 62.5 15.2124 62.5 32.0303C62.5 48.8481 48.8174 62.5298 32 62.5298ZM32 4.53027C16.8364 4.53027 4.5 16.8667 4.5 32.0303C4.5 47.1938 16.8364 59.5298 32 59.5298C47.1636 59.5298 59.5 47.1938 59.5 32.0303C59.5 16.8667 47.1631 4.53027 32 4.53027V4.53027Z" fill="#E8F5FC"/>
<path d="M31.3032 54.0737L19.6812 47.6265L17.6875 36.3579L24.5435 28.0552L23.5322 21.3657L36.8682 9.75977L34.7783 22.9136L38.6846 28.1152L38.3242 33.353L46.1035 38.5395L41.8135 50.4741L31.3032 54.0737H31.3032ZM22.3862 45.6968L31.5923 50.8042L39.4775 48.103L42.4863 39.7329L35.2129 34.8843L35.6143 29.0234L31.6162 23.6987L32.6098 17.4424L26.7451 22.5464L27.7104 28.9321L20.8828 37.1997L22.3862 45.6968L22.3862 45.6968Z" fill="#E8F5FC"/>
<path d="M31.5334 46.1466L26.8784 43.7973L25.9648 39.0989L29.1841 34.8355L31.4464 31.6162L31.9325 37.5328L37.0584 40.6651L36.0898 44.8447L31.5334 46.1466Z" fill="#E8F5FC"/>
</g>
<defs>
<clipPath id="clip0_692_4781">
<rect width="64" height="64" fill="white"/>
</clipPath>
</defs>
</svg>
