<svg width="64" height="64" viewBox="0 0 64 64" fill="none" xmlns="http://www.w3.org/2000/svg">
<g clip-path="url(#clip0_692_4786)">
<path d="M32 1.5C15.18 1.5 1.5 15.18 1.5 32C1.5 48.82 15.18 62.5 32 62.5C48.82 62.5 62.5 48.82 62.5 32C62.5 15.18 48.82 1.5 32 1.5ZM32 59.5C16.84 59.5 4.5 47.16 4.5 32C4.5 16.84 16.84 4.5 32 4.5C47.16 4.5 59.5 16.84 59.5 32C59.5 47.16 47.16 59.5 32 59.5Z" fill="#E8F5FC"/>
<path d="M38.9111 21.3603L34.2011 30.5803L26.0511 13.7803L12.1211 46.1403H52.1611L38.9111 21.3603V21.3603ZM21.9711 30.8403L23.8311 33.1903L26.6111 27.7303L28.9911 31.6303L30.4711 29.7503L34.1411 37.3203L37.1411 31.4303L39.0711 34.4203L40.9711 31.5803L47.1611 43.1403H16.6811L21.9711 30.8403V30.8403Z" fill="#E8F5FC"/>
</g>
<defs>
<clipPath id="clip0_692_4786">
<rect width="64" height="64" fill="white"/>
</clipPath>
</defs>
</svg>
