<svg width="64" height="64" viewBox="0 0 64 64" fill="none" xmlns="http://www.w3.org/2000/svg">
<g clip-path="url(#clip0_692_4790)">
<path d="M32 1.5C15.18 1.5 1.5 15.18 1.5 32C1.5 48.82 15.18 62.5 32 62.5C48.82 62.5 62.5 48.82 62.5 32C62.5 15.18 48.82 1.5 32 1.5ZM32 59.5C16.84 59.5 4.5 47.16 4.5 32C4.5 16.84 16.84 4.5 32 4.5C47.16 4.5 59.5 16.84 59.5 32C59.5 47.16 47.16 59.5 32 59.5Z" fill="#E8F5FC"/>
<path d="M32.7491 30.0997L35.2091 25.7897L42.5091 21.7197L29.7491 8.96973L25.7191 16.2897L19.5791 19.7598L16.1091 25.8997L8.78906 29.9297L21.5391 42.6898L25.6091 35.3898L29.9191 32.9297L46.3191 49.3297L47.7391 47.9197V47.9097L49.1491 46.4998L32.7491 30.0997V30.0997ZM23.3991 33.1998L20.8591 37.7598L13.7291 30.6298L18.3091 28.1098L21.7791 21.9597L27.9291 18.4898L30.4591 13.9097L37.5791 21.0397L33.0191 23.5797L29.5191 29.6998L23.3991 33.1998V33.1998Z" fill="#E8F5FC"/>
</g>
<defs>
<clipPath id="clip0_692_4790">
<rect width="64" height="64" fill="white"/>
</clipPath>
</defs>
</svg>
