<?xml version="1.0" encoding="utf-8"?>
<!-- Generator: Adobe Illustrator 27.0.1, SVG Export Plug-In . SVG Version: 6.00 Build 0)  -->
<svg version="1.1" id="Layer_1" xmlns="http://www.w3.org/2000/svg" xmlns:xlink="http://www.w3.org/1999/xlink" x="0px" y="0px"
	 viewBox="0 0 689 690" style="enable-background:new 0 0 689 690;" xml:space="preserve">
<style type="text/css">
	.st0{fill:#1A1A24;}
</style>
<g id="Layer_2_00000143616731444547247510000005252522346017354686_">
	<path class="st0" d="M344.5,0C249.3,0,163,38.6,100.6,101.1C38.1,163.5-0.5,249.7-0.5,345s38.6,181.5,101.1,243.9
		C163,651.4,249.3,690,344.5,690S526,651.4,588.4,588.9c62.4-62.4,101.1-148.7,101.1-243.9C689.5,154.5,535,0,344.5,0z M286.1,18.2
		c19-3.4,38.5-5.1,58.4-5.1c23.3,0,46.1,2.4,68,7v257.8c-16.9-14.9-39-23.9-63.2-23.9s-46.3,9-63.2,23.9L286.1,18.2L286.1,18.2z
		 M432.2,336.3c7.4,45.8-23.7,88.9-69.4,96.3c-45.8,7.4-88.9-23.7-96.3-69.4c-7.4-45.8,23.7-88.9,69.4-96.3
		C381.6,259.4,424.7,290.5,432.2,336.3z M141.3,607.4C63,546.7,12.6,451.7,12.6,345S63,143.3,141.3,82.6V607.4z M278.2,670.2
		c-47.5-9.6-91.3-29.4-129.1-56.9V76.7c37.8-27.6,81.6-47.3,129.1-56.9v263.5c0,0.7,0.2,1.3,0.5,1.9c-15.6,17-25.2,39.7-25.2,64.6
		c0,24.6,9.3,47.1,24.6,64v256.4H278.2z M412.5,669.9c-22,4.6-44.7,7-68,7c-19.9,0-39.5-1.8-58.4-5.1V421.6
		c16.9,14.9,39,23.9,63.2,23.9s46.4-9,63.2-23.9L412.5,669.9L412.5,669.9z M544.2,610.1c-36.2,27.3-78.2,47.4-123.8,58.1v-254
		c0-0.1,0-0.2,0-0.3c15.3-17,24.7-39.5,24.7-64.1s-9.3-47.1-24.6-64V21.9c45.5,10.6,87.5,30.7,123.7,58V610.1z M552.1,603.9V86.1
		c75.8,60.8,124.3,154.2,124.3,258.9S627.9,543.1,552.1,603.9z"/>
</g>
</svg>
