<?xml version="1.0" encoding="utf-8"?>
<!-- Generator: Adobe Illustrator 27.0.1, SVG Export Plug-In . SVG Version: 6.00 Build 0)  -->
<svg version="1.1" id="Layer_8" xmlns="http://www.w3.org/2000/svg" xmlns:xlink="http://www.w3.org/1999/xlink" x="0px" y="0px"
	 viewBox="0 0 1921.8 683.7" style="enable-background:new 0 0 1921.8 683.7;" xml:space="preserve">
<style type="text/css">
	.st0{fill:none;}
	.st1{fill:#2C2C3D;}
	.st2{opacity:0.5;fill:#2C2C3D;enable-background:new    ;}
</style>
<rect x="1.2" class="st0" width="1920.7" height="683.7"/>
<g>
	<path class="st1" d="M803.8,290.8c-5.7,0-10.3,4.6-10.3,10.3s4.6,10.3,10.3,10.3c5.7,0,10.3-4.6,10.3-10.3
		C814.1,295.4,809.5,290.8,803.8,290.8L803.8,290.8z M803.8,290.8c-5.7,0-10.3,4.6-10.3,10.3s4.6,10.3,10.3,10.3
		c5.7,0,10.3-4.6,10.3-10.3C814.1,295.4,809.5,290.8,803.8,290.8L803.8,290.8z M857.2,255.7l-14.6,3.5l14.6-3.2L857.2,255.7z
		 M803.8,290.8c-5.7,0-10.3,4.6-10.3,10.3s4.6,10.3,10.3,10.3c5.7,0,10.3-4.6,10.3-10.3C814.1,295.4,809.5,290.8,803.8,290.8
		L803.8,290.8z"/>
	<path class="st1" d="M756.7,270.8C756.7,270.8,756.7,270.8,756.7,270.8c-0.1-0.1-0.1-0.1-0.1-0.1
		C756.7,270.7,756.7,270.8,756.7,270.8z"/>
	<path class="st1" d="M1064.6,261.8l0.3,0.1l0.4-3.1L1064.6,261.8z M1065.7,255.4l-0.4,3.3l0.7-3l15,3.3L1065.7,255.4z"/>
	<g>
		<polygon class="st1" points="962.4,166.3 961.5,166.9 960.5,166.3 961.4,165.7 961.4,165.7 961.5,165.7 961.5,165.7 961.5,165.7 
					"/>
		<polygon class="st1" points="962.4,166.3 961.5,166.9 960.5,166.3 961.4,165.7 961.4,165.7 961.5,165.7 961.5,165.7 961.5,165.7 
					"/>
	</g>
	<path class="st1" d="M965.9,268L965.9,268L965.9,268C965.9,268,965.9,268,965.9,268L965.9,268z M961.5,165.7L961.5,165.7h-0.1
		l-0.9,0.5l1,0.6l0.9-0.6L961.5,165.7L961.5,165.7z M952.6,245.4C952.6,245.4,952.6,245.4,952.6,245.4L952.6,245.4L952.6,245.4z
		 M965.9,268L965.9,268L965.9,268C965.9,268,965.9,268,965.9,268L965.9,268z M1064.6,261.8l0.3,0.1l0.4-3.1L1064.6,261.8z"/>
	<polygon class="st1" points="961.5,165.7 961.5,165.7 961.5,165.7 	"/>
	<polygon class="st1" points="961.5,165.7 961.4,165.7 961.4,165.7 	"/>
	<polygon class="st1" points="1065.3,258.8 1065,261.9 1064.6,261.8 	"/>
	<path class="st1" d="M1167.2,270.7C1167.1,270.7,1167.1,270.7,1167.2,270.7c-0.1,0.1-0.1,0.1-0.1,0.1
		C1167.1,270.8,1167.1,270.7,1167.2,270.7z"/>
	<path class="st1" d="M1418.5,441c-129.8-13.3-215.4-46.9-239.7-55.3c-2.2-0.7-5.3-1.6-9.2-2.7l-28.5-61.4l10.3-43.2
		c3.7-0.7,7.8-2.2,11.8-5c0.8-0.4,1.5-0.8,2.2-1.3c0.2,0.6,0.6,1.1,0.6,1.1c0-0.8,0.6-1.8,1.1-2.5c0,0,0,0,0,0
		c0-0.1,0.1-0.1,0.1-0.1c0-0.1,0.1-0.1,0.1-0.1c0.1-0.1,0.1-0.1,0.2-0.2c0.1-0.1,0.1-0.1,0.1-0.1c0.3-0.3,0.8-0.8,1.7-1.2
		c2-1,3.4-2.2,3.2-3.4c-0.1-1.3,1.3-3.2,2.8-4c0,0-0.8-0.4-0.6-1.3c0,0-1.2,0.3-1.3,1c0,0-1.5,0.4-2.7,1.3l-1.5,0.1
		c0,0,0.7-2.5,4.3-3.8l0.6,0.8c0.2-0.3,0.3-0.7,0.2-1c0.1,0,0.2-0.1,0.3-0.1c0,0-0.6-0.6,0.4-1.8c0,0-0.7-0.4-0.1-1.3
		c-0.2,0.2-3.4,2.9-7.7,4.1c0,0-3.3-0.7-5.6,2.2c-2.7,3.4-4.8,2-4.8,2l1.3,1.8c0,0-1.3,1.4-0.1,2.1c0,0,0.2,0.5-0.2,1.2c0,0,0,0,0,0
		c-0.2,0.1-1,0.7-2.6,0.9l1.4,0.3c-8.5,4.3-17.2,1.9-17.3,1.9l-58.1-12.9l-0.2-0.1l-15-3.3l-0.7,3l0.4-3.3l2.4-21l6.8,4.3l2.4-3.7
		l2.4-3.7l-109.9-69.7l24-15.2V136l-32.2,20.4l-32.2-20.4v10.4l23.9,15.2l-109.9,69.7l2.4,3.7l2.4,3.7l6.7-4.3l2.4,21.1l0,0.2
		l-14.6,3.2L784.5,272c-0.1,0-8.8,2.4-17.3-1.9l1.4-0.3c-1.5-0.1-2.4-0.7-2.6-0.9c0,0,0,0,0,0c-0.4-0.8-0.2-1.2-0.2-1.2
		c1.2-0.7-0.1-2.1-0.1-2.1l1.3-1.8c0,0-2.1,1.4-4.8-2c-2.3-2.9-5.6-2.2-5.6-2.2c-4.3-1.2-7.5-4-7.7-4.1c0.6,0.9-0.1,1.3-0.1,1.3
		c1,1.2,0.4,1.8,0.4,1.8c0.1,0,0.2,0.1,0.3,0.1c-0.1,0.3-0.1,0.7,0.2,1l0.6-0.8c3.6,1.4,4.3,3.8,4.3,3.8l-1.5-0.1
		c-1.2-0.9-2.7-1.3-2.7-1.3c-0.1-0.7-1.3-1-1.3-1c0.3,0.9-0.6,1.3-0.6,1.3c1.5,0.7,3,2.7,2.8,4c-0.1,1.3,1.2,2.4,3.2,3.4
		c0.8,0.4,1.3,0.8,1.7,1.2c0,0,0,0,0.1,0.1c0,0.1,0.1,0.1,0.2,0.2c0,0,0.1,0.1,0.1,0.1c0,0,0.1,0.1,0.1,0.1c0,0,0,0,0,0
		c0.5,0.6,1.1,1.6,1.1,2.5c0,0,0.4-0.5,0.6-1.1c0.7,0.4,1.4,0.9,2.2,1.3c3.9,2.8,8,4.3,11.8,5l10.3,43.2l-21,45.3
		c-11.2,1.4-21.7,2.7-31,4.1c-53,7.6-256.9,49.4-222.8,53.5c0,0,67.5,10.9,137.1,6.4c0,0-27.5,11.5,57.8,10.1
		c0,0,77.2-1.4,105.2-2.4c28.1-1,64-6.4,98.2,4.4c34.2,10.8,142.1,8.9,124.3,3.7c-17.8-5.2,207,6.6,148.8-1.4
		C1081.4,431.7,1548.3,454.3,1418.5,441L1418.5,441z M769.9,365.9l15.4-33.2l7.3,30.7C784.8,364.2,777.2,365.1,769.9,365.9z
		 M803.8,314.3c-7.3,0-13.2-5.9-13.2-13.2c0-7.3,5.9-13.2,13.2-13.2c7.3,0,13.2,5.9,13.2,13.2C817,308.4,811.1,314.3,803.8,314.3z
		 M832.4,358.3c-12,0-21.8-9.8-21.8-21.8c0-12,9.8-21.8,21.8-21.8c12,0,21.8,9.7,21.8,21.8C854.2,348.6,844.4,358.3,832.4,358.3z
		 M842.4,303.1c-7.3,0-13.2-5.9-13.2-13.2c0-7.3,5.9-13.2,13.2-13.2c7.3,0,13.2,5.9,13.2,13.2C855.6,297.2,849.7,303.1,842.4,303.1z
		 M958.4,185.1l7.6,13h-3.7l-3.9-6.7l-5,8.4l1.3,0l-1.8,3.2l-5.1,0L958.4,185.1z M958.7,195.1l1.9,3.2l-3.9,6.8h9.9l-0.7-1.1h3.7
		l2.5,4.3h-21L958.7,195.1z M959.8,203l1.8-3.2l7.8,0l-4.9-8.4l-0.5,0.9l-1.9-3.2l2.4-4.1l10.6,17.9L959.8,203z M960.5,166.3
		l0.9-0.5v-0.1l0.1,0l0.1,0v0.1l0.9,0.6l-0.9,0.6L960.5,166.3L960.5,166.3z M1026.6,321.8c-0.4,1.6-2.2,2.5-3.9,2.1
		c-19.4-4.6-40.1-6.9-61.5-6.7c-21.5-0.2-42.2,2.1-61.6,6.7c-0.3,0.1-0.5,0.1-0.8,0.1c-1.4,0-2.7-0.9-3.1-2.2
		c-0.4-1.6,0.6-3.1,2.3-3.5c19.9-4.7,41.2-7,63.2-6.8c22-0.2,43.2,2.1,63.1,6.8C1026,318.7,1027,320.2,1026.6,321.8z M904.5,261.8
		c0,0,10.5-7.9,24.9-10.6l7,31.6c0.5,2.7-1.2,5.8-4.4,7.4c-3.7,1.8-7.8,0.9-9.2-2c-1.4-2.9,0.4-6.7,4-8.5c1.7-0.8,3.4-1.1,5-0.9
		l-3.3-14.8c-10.5,3.1-18.2,7.8-18.2,7.8l4.4,19.9c1,2.8-0.8,6.3-4.2,8c-3.7,1.8-7.8,0.9-9.2-2c-1.4-2.9,0.4-6.7,4-8.5
		c1.7-0.8,3.5-1.1,5.1-0.8L904.5,261.8z M967,245.9c3.2,2.8,3.6,7,3.9,9.7c0.1,1,0.2,1.9,0.4,2.3c0.2,0.4,0.6,1.4,1,1.6
		c0.9,0.3,2.1,0,2.4-0.2l0.3,1c-0.4,0.2-3.2,1.7-4.5-0.2c-0.4-0.5-0.8-1.3-1.2-2.1c-1.3-2.4-2.8-5.4-5.6-6.7c-2-1-4.7-0.2-6.7,0.6
		l8.9,16l0,0c0,0,0,0,0,0c0,0,0,0,0,0c1,1,1.6,2.3,1.5,3.9c-0.1,2.2-1.4,4.7-3.5,6.5c-0.7,0.6-1.4,1.1-2.2,1.5
		c-3.2,1.7-6.9,1.7-8.9-0.2c-1-1-1.6-2.4-1.5-3.9c0.1-2.2,1.4-4.7,3.5-6.5c2-1.7,4.3-2.6,6.4-2.8l-8.2-15.4l-2-3.6
		C951.2,247.5,962.1,241.7,967,245.9z M952.6,245.4C952.6,245.4,952.6,245.4,952.6,245.4L952.6,245.4L952.6,245.4z M1016.2,297
		c-1.2,2.5-4.5,3.8-8,3.1c-4-0.8-6.7-4-6.1-7.2c0.6-3.2,4.4-5.1,8.4-4.3c1.8,0.4,3.4,1.2,4.5,2.4l6.4-13.8
		c-10.3-3.9-19.2-4.8-19.2-4.8l-8.6,18.5c-0.9,2.8-4.5,4.5-8.2,3.8c-4-0.8-6.7-4-6.1-7.2c0.6-3.2,4.4-5.1,8.4-4.3
		c1.9,0.4,3.4,1.3,4.5,2.4l11.5-24.8c0,0,13.1,0.1,26.2,6.7L1016.2,297z M1051.5,238.6l-7.6,72.4l-2.7,25.5
		c-0.2,1.8-1.6,3.1-3.3,3.1c-0.1,0-0.2,0-0.4,0c-0.2,0-0.3-0.1-0.5-0.1c-1.5-0.4-2.6-2-2.4-3.8l10.1-96.2
		c-77.8-25.6-154.2-3.9-167.2,0.1l10,96c0.1,1.2-0.3,2.4-1.2,3.1c-0.5,0.4-1.1,0.7-1.7,0.8c-0.1,0-0.2,0-0.4,0
		c-1.6,0-3.1-1.3-3.3-3.1l-3.7-35.8l-6.5-62c-0.1-0.8,0.1-1.7,0.5-2.3c0.3-1,1-1.8,2.1-2.2c0.9-0.3,22.2-7.7,54.6-11.4
		c29.9-3.5,75.3-4.3,121.2,11.4c1.5,0.5,2.4,2.1,2.2,3.6c0,0,0,0,0,0C1051.5,238,1051.5,238.3,1051.5,238.6z M1065,261.9l-0.3-0.1
		l0.7-3L1065,261.9z M1081.4,276.8c7.3,0,13.2,5.9,13.2,13.2c0,7.3-5.9,13.2-13.2,13.2c-7.3,0-13.2-5.9-13.2-13.2
		C1068.2,282.7,1074.1,276.8,1081.4,276.8z M1091.4,358.3c-12,0-21.8-9.8-21.8-21.8c0-12,9.7-21.8,21.8-21.8
		c12,0,21.8,9.7,21.8,21.8C1113.1,348.6,1103.4,358.3,1091.4,358.3z M1106.8,301.1c0-7.3,5.9-13.2,13.2-13.2
		c7.3,0,13.2,5.9,13.2,13.2c0,7.3-5.9,13.2-13.2,13.2C1112.7,314.3,1106.8,308.4,1106.8,301.1z M1128.6,374l9.8-41.3l22.4,48.2
		C1152,378.8,1141,376.5,1128.6,374z"/>
	<path class="st2" d="M864.1,201.1c-0.1,0-0.3,0-0.4-0.1c-16.6-4.1-33-7.2-48.5-9.3c-1-0.1-1.6-1-1.5-2s1-1.6,2-1.5
		c15.7,2.1,32.1,5.2,48.9,9.3c0.9,0.2,1.5,1.2,1.3,2.1C865.6,200.6,864.9,201.1,864.1,201.1z"/>
	<path class="st2" d="M879.3,172.5c-0.3,0-0.7-0.1-1-0.3c-19.7-13.1-33.7-20.9-41.9-25c-0.9-0.4-1.2-1.5-0.8-2.4
		c0.4-0.9,1.5-1.2,2.4-0.8c8.4,4.2,22.5,12,42.3,25.3c0.8,0.5,1,1.6,0.5,2.4C880.5,172.2,879.9,172.5,879.3,172.5z"/>
	<path class="st2" d="M910.3,145.3c-0.5,0-1-0.2-1.4-0.6c-14.1-16.8-27.2-28.1-35.7-34.7c-0.8-0.6-0.9-1.7-0.3-2.5
		c0.6-0.8,1.7-0.9,2.5-0.3c8.6,6.7,21.9,18.2,36.2,35.3c0.6,0.7,0.5,1.9-0.2,2.5C911.1,145.1,910.7,145.3,910.3,145.3L910.3,145.3z"
		/>
	<path class="st2" d="M946.3,132.8c-0.8,0-1.5-0.6-1.7-1.4C936.9,97.6,930,85,929.9,84.9c-0.5-0.8-0.2-1.9,0.7-2.4
		c0.8-0.5,1.9-0.2,2.4,0.7c0.3,0.5,7.2,13.1,15,47.5c0.2,1-0.4,1.9-1.3,2.1C946.5,132.8,946.4,132.8,946.3,132.8z"/>
	<path class="st2" d="M1058.7,201.1c-0.8,0-1.5-0.5-1.7-1.3c-0.2-0.9,0.3-1.9,1.3-2.1c16.8-4.1,33.2-7.3,48.9-9.3
		c1-0.1,1.9,0.5,2,1.5c0.1,1-0.5,1.9-1.5,2c-15.6,2.1-31.9,5.2-48.5,9.3C1059,201.1,1058.8,201.1,1058.7,201.1z"/>
	<path class="st2" d="M1043.5,172.5c-0.6,0-1.1-0.3-1.5-0.8c-0.5-0.8-0.3-1.9,0.5-2.4c19.8-13.2,33.9-21,42.3-25.3
		c0.9-0.4,1.9-0.1,2.4,0.8c0.4,0.9,0.1,1.9-0.8,2.4c-8.3,4.2-22.3,11.9-41.9,25C1044.1,172.4,1043.8,172.5,1043.5,172.5z"/>
	<path class="st2" d="M1012.5,145.3c-0.4,0-0.8-0.1-1.1-0.4c-0.7-0.6-0.8-1.7-0.2-2.5c14.3-17,27.6-28.6,36.2-35.3
		c0.8-0.6,1.9-0.5,2.5,0.3c0.6,0.8,0.5,1.9-0.3,2.5c-8.5,6.6-21.6,17.9-35.7,34.7C1013.5,145,1013,145.3,1012.5,145.3z"/>
	<path class="st2" d="M976.5,132.8c-0.1,0-0.3,0-0.4,0c-1-0.2-1.5-1.2-1.3-2.1c7.8-34.4,14.7-47,15-47.5c0.5-0.8,1.6-1.2,2.4-0.7
		c0.8,0.5,1.2,1.6,0.7,2.4c-0.1,0.2-7,12.9-14.6,46.5C978.1,132.2,977.3,132.8,976.5,132.8z"/>
	<g id="layer1">
		<g id="path3004">
			<path class="st1" d="M952.7,245.5L952.7,245.5C952.6,245.4,952.6,245.4,952.7,245.5L952.7,245.5z"/>
		</g>
		<g id="path3778">
			<path class="st1" d="M952.6,245.4C952.6,245.4,952.6,245.4,952.6,245.4L952.6,245.4L952.6,245.4z"/>
			<path class="st1" d="M952.7,245.5L952.7,245.5C952.6,245.4,952.6,245.4,952.7,245.5L952.7,245.5z"/>
		</g>
	</g>
	<circle class="st1" cx="1091.4" cy="336.5" r="18.1"/>
	<circle class="st1" cx="832.4" cy="336.5" r="18.1"/>
	<path class="st1" d="M832.1,289.9c0-5.7,4.6-10.3,10.3-10.3c5.7,0,10.3,4.6,10.3,10.3s-4.6,10.3-10.3,10.3
		C836.7,300.2,832.1,295.6,832.1,289.9z"/>
	<path class="st1" d="M1071.1,289.9c0-5.7,4.6-10.3,10.3-10.3c5.7,0,10.3,4.6,10.3,10.3s-4.6,10.3-10.3,10.3
		C1075.7,300.2,1071.1,295.6,1071.1,289.9z"/>
	<path class="st1" d="M1109.6,301.1c0-5.7,4.6-10.3,10.3-10.3c5.7,0,10.3,4.6,10.3,10.3s-4.6,10.3-10.3,10.3
		C1114.2,311.4,1109.6,306.8,1109.6,301.1z"/>
</g>
</svg>
