<?xml version="1.0" encoding="UTF-8"?><svg id="Layer_1" xmlns="http://www.w3.org/2000/svg" viewBox="0 0 64 64"><defs><style>.cls-1{fill:none;}.cls-2{fill:#1d1d1b;}</style></defs><rect class="cls-1" width="64" height="64"/><path class="cls-2" d="M31.96997,1.46997C15.15002,1.46997,1.46997,15.14996,1.46997,31.96997s13.68005,30.5,30.5,30.5,30.5-13.67999,30.5-30.5S48.78998,1.46997,31.96997,1.46997Zm0,58c-15.15997,0-27.5-12.33997-27.5-27.5S16.81,4.46997,31.96997,4.46997s27.5,12.34003,27.5,27.5-12.33997,27.5-27.5,27.5Z"/><g><path class="cls-2" d="M36.46051,13.01114c0,2.4621-1.9984,4.47156-4.46051,4.47156s-4.46051-2.00946-4.46051-4.47156,1.9984-4.46057,4.46051-4.46057,4.46051,1.99847,4.46051,4.46057Z"/><path class="cls-2" d="M40.54566,23.12459l5.03466,6.58041,2.13089-1.63403-5.44316-7.12141-6.76809-2.74918h-6.9999l-6.76809,2.74918-5.44316,7.12141,2.13089,1.63403,5.03466-6.58041,4.10719-1.57884,.20978,11.14032-6.70185,18.60392h7.71766l1.21447-5.1009v-4.70344l-1.1262,3.88642-1.05988-.30918,1.68923-5.81852h4.90217l1.70028,5.81852-1.05988,.30918-1.1262-3.85327v4.70344l1.071,5.06774h7.93842l-6.70185-18.60392,.20978-11.14032,4.10719,1.57884Zm-8.5898,15.68917c-.90536,0-1.6341-.72874-1.6341-1.63403,0-.91642,.72874-1.64515,1.6341-1.64515,.89431,0,1.63403,.72874,1.63403,1.64515,0,.9053-.73972,1.63403-1.63403,1.63403Z"/></g></svg>