<?xml version="1.0" encoding="UTF-8"?><svg id="Layer_1" xmlns="http://www.w3.org/2000/svg" viewBox="0 0 64 64"><defs><style>.cls-1{fill:none;}.cls-2{fill:#1d1d1b;}</style></defs><rect class="cls-1" width="64" height="64"/><path class="cls-2" d="M32,62.46973C15.18213,62.46973,1.5,48.78711,1.5,31.96924S15.18213,1.46924,32,1.46924s30.5,13.68213,30.5,30.5-13.68262,30.50049-30.5,30.50049Zm0-58.00049c-15.16357,0-27.5,12.33643-27.5,27.5s12.33643,27.50049,27.5,27.50049,27.5-12.33691,27.5-27.50049S47.16309,4.46924,32,4.46924Z"/><circle class="cls-2" cx="32" cy="31.96946" r="6.91011"/><path class="cls-2" d="M32.00049,44.07031c-8.07812,0-15.60693-4.34961-19.64893-11.35059l-.43311-.75,.43311-.75c4.0415-7.00049,11.5708-11.34961,19.64893-11.34961,8.07275,0,15.59814,4.34912,19.63916,11.34961l.43359,.75-.43359,.75c-4.04199,7.00098-11.56738,11.35059-19.63916,11.35059ZM15.40527,31.96973c3.59912,5.63477,9.87891,9.10059,16.59521,9.10059,6.71045,0,12.98682-3.46582,16.58545-9.10059-3.59863-5.63477-9.87402-9.09961-16.58545-9.09961-6.7168,0-12.99609,3.46484-16.59521,9.09961Z"/><rect class="cls-2" x="30.49561" y="10.50586" width="3.00049" height="6.33691"/><rect class="cls-2" x="42.81227" y="17.52995" width="4.24264" height="2.99968" transform="translate(-.29535 37.34654) rotate(-45)"/><rect class="cls-2" x="17.56022" y="16.91432" width="2.99968" height="4.24264" transform="translate(-7.87767 19.05291) rotate(-45)"/><rect class="cls-2" x="30.49805" y="47.10352" width="3" height="6.33691"/><rect class="cls-2" x="16.93874" y="43.41715" width="4.24264" height="2.99968" transform="translate(-26.17855 26.63338) rotate(-45)"/><rect class="cls-2" x="43.43375" y="42.78884" width="2.99968" height="4.24264" transform="translate(-18.59553 44.92673) rotate(-45)"/></svg>