<svg width="282" height="282" viewBox="0 0 282 282" fill="none" xmlns="http://www.w3.org/2000/svg">
<circle cx="141" cy="141" r="138" fill="#ff9c41" stroke="#111117" stroke-width="6"/>
<circle cx="141" cy="141" r="105.1" fill="#1A1A24" stroke="#111117" stroke-width="6"/>
<path d="M250.745 119.615L245.105 129.015L273.305 124.55L266.96 132.775" stroke="#111117" stroke-width="4"/>
<path d="M91.65 263.2L96.115 251.92L110.215 267.9L114.445 254.975L91.65 263.2Z" stroke="#111117" stroke-width="4"/>
<path d="M76.8451 52.875L70.2651 42.3M70.2651 42.3L63.6851 31.725H76.8451L70.2651 42.3Z" stroke="#111117" stroke-width="4"/>
<path d="M68.62 250.745L72.145 258.5L85.54 237.115" stroke="#111117" stroke-width="4"/>
<path d="M184.005 43.71L196.695 19.505" stroke="#111117" stroke-width="4"/>
<path d="M209.62 24.675L195.52 51.7" stroke="#111117" stroke-width="4"/>
<path d="M204.685 34.075L194.815 39.48L190.585 34.075" stroke="#111117" stroke-width="4"/>
<path d="M41.125 99.64L23.03 91.415L10.34 99.64L26.32 105.75" stroke="#111117" stroke-width="4"/>
<path d="M15.745 122.905L20.445 136.065H31.49" stroke="#111117" stroke-width="4"/>
<path d="M175.545 27.495L167.555 17.155L162.15 30.315L175.545 27.495Z" stroke="#111117" stroke-width="4"/>
<path d="M40.42 185.18L31.255 209.385L19.74 205.86L23.03 194.58L48.645 200.455" stroke="#111117" stroke-width="4"/>
<path d="M34.3099 172.02L10.5749 176.485L29.1399 151.105L8.92993 154.16L34.3099 172.02Z" stroke="#111117" stroke-width="4"/>
<path d="M170.61 246.75L161.445 255.445L173.665 258.03L177.66 270.485M44.415 222.31V235.235H57.81V222.31H44.415Z" stroke="#111117" stroke-width="4"/>
<path d="M144.29 249.805V261.79M144.29 261.79V274.715L128.545 249.805L144.29 261.79Z" stroke="#111117" stroke-width="4"/>
<path d="M209.62 246.985L206.095 258.03L192.465 256.15" stroke="#111117" stroke-width="4"/>
<path d="M206.33 257.795L193.405 237.82" stroke="#111117" stroke-width="4"/>
<path d="M219.02 214.32L223.25 229.83L234.295 220.665L237.82 234.765" stroke="#111117" stroke-width="4"/>
<path d="M257.56 212.44L250.745 194.815M250.745 194.815L266.96 188.94M250.745 194.815L263.905 200.925M250.745 194.815L237.585 188.94" stroke="#111117" stroke-width="4"/>
<path d="M243.46 167.79L251.92 160.27L246.75 150.635L273.07 154.865L264.61 163.09L273.07 170.14" stroke="#111117" stroke-width="4"/>
<path d="M261.79 88.36L256.385 100.58L246.75 97.055" stroke="#111117" stroke-width="4"/>
<path d="M252.39 91.415L243.695 87.89L238.29 101.52" stroke="#111117" stroke-width="4"/>
<path d="M225.365 81.31L251.685 62.98" stroke="#111117" stroke-width="4"/>
<path d="M233.355 42.3L212.675 63.2151" stroke="#111117" stroke-width="4"/>
<path d="M222.78 41.36V64.155" stroke="#111117" stroke-width="4"/>
<path d="M129.72 7.05005L144.525 34.31" stroke="#111117" stroke-width="4"/>
<path d="M145.7 7.755L129.72 35.955" stroke="#111117" stroke-width="4"/>
<path d="M102.225 40.42L113.975 24.205L91.885 15.275" stroke="#111117" stroke-width="4"/>
<path d="M39.01 52.875V65.33V51.465L46.3531 58.985M58.515 71.44L46.3531 58.985M46.3531 58.985L58.515 52.875" stroke="#111117" stroke-width="4"/>
<path d="M21.855 71.91L45.825 86.95" stroke="#111117" stroke-width="4"/>
<path d="M29.61 76.61L38.775 71.91V81.545" stroke="#111117" stroke-width="4"/>
</svg>
