<?xml version="1.0" encoding="UTF-8"?><svg id="Layer_1" xmlns="http://www.w3.org/2000/svg" viewBox="0 0 64 64"><defs><style>.cls-1{fill:none;}.cls-2{fill:#1d1d1b;}</style></defs><rect class="cls-1" width="64" height="64"/><path class="cls-2" d="M32,1.52997C15.17999,1.52997,1.5,15.20996,1.5,32.02997s13.67999,30.5,30.5,30.5,30.5-13.67999,30.5-30.5S48.82001,1.52997,32,1.52997Zm0,58c-15.15997,0-27.5-12.33997-27.5-27.5S16.84003,4.52997,32,4.52997s27.5,12.34003,27.5,27.5-12.34003,27.5-27.5,27.5Z"/><path class="cls-2" d="M38.32001,10.45996l-12.62,1.71002-4.37,6.62-8.03003,4.77002-3.48999,7.51001,4.82001,7.13,6.63,.54999,1.31-1.19,5.51001,5.14996v11.30005h4v-8.87l6.87-6.87006v-.81l2.70001,1.53003,9.16998-6.77002,.46997-12.33997-12.96997-9.42004Zm-13.51001,25.09003l.97003-.88,2.29999,.04999v3.88l-3.27002-3.04999Zm11.14001,1.46997l-3.87,3.88v-6.07996l2.29999,.04999,1.57001,.89001v1.25995Zm11.92999-6.35999l-6.45001,4.76001-6.22998-3.52997-10.54999-.24005-4.44,4.01001-3.90002-.33002-3.06-4.52997,2.38-5.13,7.82001-4.65997,4-6.05005,10.08002-1.37,10.69995,7.77002-.34998,9.29999Z"/></svg>