<?xml version="1.0" encoding="UTF-8"?><svg id="Layer_1" xmlns="http://www.w3.org/2000/svg" viewBox="0 0 64 64"><defs><style>.cls-1{fill:none;}.cls-2{fill:#1d1d1b;}</style></defs><rect class="cls-1" width="64" height="64"/><path class="cls-2" d="M31.96997,1.46997C15.15002,1.46997,1.46997,15.14996,1.46997,31.96997s13.68005,30.5,30.5,30.5,30.5-13.67999,30.5-30.5S48.78998,1.46997,31.96997,1.46997Zm0,58c-15.15997,0-27.5-12.33997-27.5-27.5S16.81,4.46997,31.96997,4.46997s27.5,12.34003,27.5,27.5-12.33997,27.5-27.5,27.5Z"/><rect class="cls-2" x="22.51782" y="28.74555" width="4.47632" height="4.47632" transform="translate(29.15965 -8.4302) rotate(45)"/><rect class="cls-2" x="36.94478" y="28.74555" width="4.47632" height="4.47632" transform="translate(33.38521 -18.63161) rotate(45)"/><path class="cls-2" d="M41.31,15.09998H22.69l-7.82001,7.82001v18.03003h7.27002v7.94995h19.69v-7.94995h7.29999V22.91998l-7.82001-7.82001Zm4.82001,22.85004h-7.29999v7.94995h-2.56v-4.17999h-3v4.17999h-2.60004v-4.17999h-3v4.17999h-2.52997v-7.94995h-7.27002v-13.79004l6.07001-6.06h16.12l6.07001,6.06v13.79004Z"/></svg>