<?xml version="1.0" encoding="UTF-8"?><svg id="Layer_1" xmlns="http://www.w3.org/2000/svg" viewBox="0 0 64 64"><defs><style>.cls-1{fill:none;}.cls-2{fill:#1d1d1b;}</style></defs><rect class="cls-1" width="64" height="64"/><path class="cls-2" d="M32,62.53027C15.18213,62.53027,1.5,48.84863,1.5,32.03076S15.18213,1.53076,32,1.53076s30.5,13.68213,30.5,30.5-13.68262,30.49951-30.5,30.49951Zm0-57.99951c-15.16357,0-27.5,12.33643-27.5,27.5s12.33643,27.49951,27.5,27.49951,27.5-12.33594,27.5-27.49951S47.16309,4.53076,32,4.53076Z"/><path class="cls-2" d="M31.30225,54.07324l-11.62207-6.44727-1.99365-11.26855,6.85596-8.30273-1.01123-6.68945,13.33594-11.60596-2.08984,13.15381,3.90625,5.20166-.36035,5.23779,7.7793,5.18652-4.29004,11.93457-10.51025,3.59961Zm-8.91699-8.37695l9.20605,5.10742,7.88525-2.70117,3.00879-8.37012-7.27344-4.84863,.40137-5.86084-3.99805-5.32471,.99365-6.25635-5.86475,5.104,.96533,6.38574-6.82764,8.26758,1.50342,8.49707Z"/><polygon class="cls-2" points="31.53263 46.14648 26.8777 43.79726 25.96411 39.09882 29.18341 34.83543 31.44562 31.61613 31.93172 37.53268 37.05764 40.66497 36.08906 44.84464 31.53263 46.14648"/></svg>