<?xml version="1.0" encoding="UTF-8"?><svg id="Layer_1" xmlns="http://www.w3.org/2000/svg" viewBox="0 0 64 64"><defs><style>.cls-1{fill:none;}.cls-2{fill:#1d1d1b;}</style></defs><rect class="cls-1" width="64" height="64"/><path class="cls-2" d="M32,1.5C15.17999,1.5,1.5,15.17999,1.5,32s13.67999,30.5,30.5,30.5,30.5-13.67999,30.5-30.5S48.82001,1.5,32,1.5Zm0,58c-15.15997,0-27.5-12.34003-27.5-27.5S16.84003,4.5,32,4.5s27.5,12.33997,27.5,27.5-12.34003,27.5-27.5,27.5Z"/><path class="cls-2" d="M38.90997,21.35999l-4.70996,9.21997L26.04999,13.77997,12.12,46.14001H52.15997l-13.25-24.78003Zm-16.94,9.47998l1.86005,2.35004,2.77997-5.46002,2.38,3.90002,1.47998-1.88,3.67004,7.57001,3-5.89001,1.92999,2.98999,1.89996-2.84003,6.19,11.56006H16.67999l5.28998-12.30005Z"/></svg>