<?xml version="1.0" encoding="UTF-8"?><svg id="Layer_1" xmlns="http://www.w3.org/2000/svg" viewBox="0 0 64 64"><defs><style>.cls-1{fill:none;}.cls-2{fill:#1d1d1b;}</style></defs><rect class="cls-1" width="64" height="64"/><path class="cls-2" d="M32,1.5C15.17999,1.5,1.5,15.17999,1.5,32s13.67999,30.5,30.5,30.5,30.5-13.67999,30.5-30.5S48.82001,1.5,32,1.5Zm0,58c-15.15997,0-27.5-12.34003-27.5-27.5S16.84003,4.5,32,4.5s27.5,12.33997,27.5,27.5-12.34003,27.5-27.5,27.5Z"/><path class="cls-2" d="M32.75,30.09998l2.46002-4.31,7.29999-4.07001-12.76001-12.75-4.03003,7.32001-6.13995,3.47003-3.47003,6.13995-7.32001,4.03003,12.75,12.76001,4.07001-7.29999,4.31-2.46002,16.40002,16.39996,1.41998-1.40997v-.01001l1.41003-1.40997-16.40002-16.40002Zm-9.34998,3.10004l-2.54004,4.56-7.13-7.13,4.58002-2.52002,3.47003-6.15002,6.14996-3.46997,2.53003-4.58002,7.12,7.13-4.56,2.53998-3.5,6.12006-6.12,3.5Z"/></svg>