<svg width="64" height="64" viewBox="0 0 64 64" fill="none" xmlns="http://www.w3.org/2000/svg">
<g clip-path="url(#clip0_668_4771)">
<path d="M57.5276 41.17C55.3276 38.87 52.4775 39.58 51.0476 40.13C49.6276 40.68 42.3276 43.53 42.3276 43.53C40.1376 40.29 36.2376 41.99 32.2875 42.71C28.3376 43.42 27.3575 42.38 25.3276 41.67C24.3276 41.32 23.4276 41.31 22.7576 41.4C22.1575 40.21 20.9175 39.39 19.4976 39.39H12.4175C10.4075 39.39 8.76758 41.03 8.76758 43.04V53.3C8.76758 55.32 10.4075 56.95 12.4175 56.95H19.4976C20.9275 56.95 22.1575 56.13 22.7576 54.93C23.4376 54.83 24.3575 54.7 25.2676 54.56C27.0776 54.28 29.8276 54.78 31.3076 55.27C32.7875 55.76 35.0876 56.7 36.4075 56.09C37.7175 55.49 59.7175 43.48 57.5276 41.17L57.5276 41.17ZM20.1476 53.3C20.1476 53.66 19.8575 53.95 19.4976 53.95H12.4175C12.0576 53.95 11.7676 53.66 11.7676 53.3V43.04C11.7676 42.68 12.0576 42.39 12.4175 42.39H19.4976C19.8576 42.39 20.1476 42.68 20.1476 43.04V53.3Z" fill="#E8F5FC"/>
<path d="M33.223 36.785C25.0248 36.785 18.3555 30.1156 18.3555 21.9175C18.3555 13.7194 25.0248 7.05005 33.223 7.05005C41.4211 7.05005 48.0904 13.7194 48.0904 21.9175C48.0904 30.1156 41.4211 36.785 33.223 36.785V36.785ZM33.223 9.77964C26.5303 9.77964 21.0851 15.2248 21.0851 21.9175C21.0851 28.6102 26.5302 34.0554 33.223 34.0554C39.9163 34.0554 45.3609 28.6102 45.3609 21.9175C45.3609 15.2248 39.9163 9.77964 33.223 9.77964V9.77964Z" fill="#E8F5FC"/>
<path d="M37.2762 22.2204C36.9279 21.8874 36.5343 21.5998 36.0954 21.3727C35.6564 21.1305 35.2023 20.9337 34.7632 20.7673C34.7329 20.7521 34.6875 20.7369 34.6572 20.7218V16.9071C34.96 16.9525 35.2931 17.0433 35.6261 17.1493C36.2316 17.3612 36.8371 17.6337 37.4124 17.9516L38.5629 15.6355C37.9573 15.2267 37.261 14.8786 36.489 14.591C35.9894 14.3942 35.3688 14.273 34.6572 14.2125V12.8047H32.9013V14.1974C32.1897 14.273 31.5388 14.4698 30.9636 14.7878C30.237 15.1662 29.6769 15.6809 29.2833 16.3469C28.8745 16.9979 28.6777 17.7699 28.6777 18.6631C28.6777 19.4048 28.814 20.0255 29.0865 20.525C29.359 21.0397 29.7223 21.4636 30.1613 21.8118C30.6003 22.1448 31.0696 22.4324 31.5691 22.6747C31.7356 22.7503 31.9021 22.826 32.0687 22.9017V27.0041C31.9476 26.9889 31.8265 26.9586 31.6903 26.9284C31.2664 26.8224 30.8274 26.671 30.4035 26.4591C29.9797 26.2623 29.5861 26.0352 29.2228 25.7628L27.8906 28.1243C28.4356 28.5027 28.9957 28.8055 29.5861 29.0628C30.1613 29.3051 30.7668 29.4867 31.3723 29.5926C31.6145 29.6381 31.8416 29.6835 32.0687 29.6986V31.0308H33.8247V29.7441C34.6875 29.6835 35.4141 29.4867 36.0348 29.1537C36.822 28.7449 37.4124 28.2151 37.806 27.5339C38.2147 26.8678 38.4115 26.1412 38.4115 25.3692C38.4115 24.6274 38.3207 24.0068 38.1087 23.4921C37.8968 22.9925 37.6243 22.5687 37.2762 22.2205L37.2762 22.2204ZM31.8113 18.4359C31.8113 17.9062 32.0081 17.4974 32.3865 17.2401C32.538 17.1341 32.7045 17.0433 32.9013 16.9828V19.9195C32.644 19.7529 32.432 19.5865 32.2504 19.4048C31.9627 19.1172 31.8113 18.7993 31.8113 18.436V18.4359ZM34.8995 26.4137C34.6572 26.6559 34.3545 26.8376 33.976 26.9435C33.9306 26.9586 33.8701 26.9738 33.8247 26.9738V23.6586C33.9458 23.7192 34.0366 23.7797 34.1426 23.8402C34.4907 24.0522 34.7632 24.2793 34.96 24.5366C35.1568 24.7788 35.2628 25.0664 35.2628 25.3692C35.2628 25.8081 35.1417 26.1564 34.8995 26.4137V26.4137Z" fill="#E8F5FC"/>
</g>
<defs>
<clipPath id="clip0_668_4771">
<rect width="64" height="64" fill="white"/>
</clipPath>
</defs>
</svg>
