<svg width="64" height="64" viewBox="0 0 64 64" fill="none" xmlns="http://www.w3.org/2000/svg">
<g clip-path="url(#clip0_668_4777)">
<path d="M35.7684 57.1236C35.7154 57.1236 35.6618 57.1169 35.6082 57.1028L33.7484 56.6071C33.5839 56.5636 33.4446 56.454 33.3645 56.3045C33.2844 56.1556 33.2696 55.9797 33.3245 55.8192C36.2035 47.3334 39.9773 42.289 46.9739 38.0614C42.0188 39.7053 37.0249 43.0788 34.7461 48.704C34.6488 48.9441 34.4306 49.112 34.1484 49.0869C33.8877 49.0759 33.6616 48.9031 33.5845 48.6549C31.5442 42.0758 33.041 37.01 38.2944 32.712C41.2855 30.3782 44.8566 29.616 48.0073 28.9439C51.738 28.148 54.959 27.4606 56.3936 24.5135C56.5051 24.285 56.7498 24.1459 57.0012 24.1698C57.2551 24.1912 57.4701 24.3664 57.5416 24.6103C59.9628 32.9405 61.6297 41.0189 55.513 48.2794C50.9455 52.9463 45.1622 54.1429 38.2894 51.8747C37.4717 53.4187 36.8394 54.9945 36.3619 56.6758C36.2848 56.9472 36.0377 57.1236 35.7684 57.1236V57.1236Z" fill="#E8F5FC"/>
<path d="M28.2281 57.1237C27.9588 57.1237 27.7117 56.9472 27.6346 56.677C27.1577 54.9964 26.5248 53.4206 25.7071 51.876C18.8349 54.1454 13.0522 52.9482 8.51433 48.3137C2.36623 41.019 4.03374 32.9406 6.45551 24.611C6.52638 24.3671 6.74144 24.1919 6.99594 24.1704C7.24798 24.1502 7.49139 24.2856 7.60354 24.5142C9.0375 27.4606 12.2591 28.1481 15.9892 28.9446C19.1399 29.6167 22.711 30.3789 25.6904 32.7041C30.9555 37.0107 32.4523 42.0771 30.412 48.6562C30.3349 48.9044 30.1094 49.0771 29.8487 49.0882C29.5911 49.0998 29.3483 48.9448 29.251 48.7052C26.9722 43.0801 21.9777 39.706 17.0232 38.0627C24.0198 42.2903 27.793 47.3346 30.6732 55.8205C30.7275 55.981 30.7127 56.1562 30.6326 56.3057C30.5525 56.4552 30.4132 56.5649 30.2487 56.6084L28.3895 57.1041C28.3347 57.1169 28.281 57.1237 28.228 57.1237L28.2281 57.1237Z" fill="#E8F5FC"/>
<path d="M43.3107 23.7862C41.703 14.4506 34.4303 10.4858 26.476 6.93037C26.2424 6.82621 25.9701 6.87584 25.7883 7.05475C25.6071 7.23366 25.556 7.50508 25.6589 7.73791C26.9899 10.7322 25.4321 13.6186 23.6284 16.9614C22.1051 19.7847 20.3778 22.9849 20.2317 26.7621C20.2287 26.9876 20.2317 27.21 20.2348 27.433C22.5648 28.0904 25.0131 29.0579 27.213 30.7741C27.5778 31.0724 27.9253 31.3757 28.26 31.6821C28.2649 31.6527 28.2729 31.6239 28.2729 31.5932C28.3086 29.0162 28.8959 26.2744 29.9398 23.6747C29.3673 27.221 29.3464 30.3139 29.851 33.3161C30.6189 34.1917 31.2751 35.0972 31.815 36.0365C32.9082 34.082 34.4728 32.2666 36.531 30.5823L36.5809 30.5425C38.713 28.879 41.059 27.9085 43.3082 27.2449C43.4235 26.1476 43.4278 24.9963 43.3107 23.7863V23.7862Z" fill="#E8F5FC"/>
</g>
<defs>
<clipPath id="clip0_668_4777">
<rect width="64" height="64" fill="white"/>
</clipPath>
</defs>
</svg>
