<svg width="61" height="61" viewBox="0 0 61 61" fill="none" xmlns="http://www.w3.org/2000/svg">
<g clip-path="url(#clip0_668_4786)">
<path d="M47.1722 13.726C45.1271 11.6809 45.227 8.24525 47.419 6.05324L42.4769 0.84245C41.2988 -0.33568 39.3138 -0.27006 38.0551 0.98856L31.9528 7.09089L33.4949 8.63303L32.1302 9.99774L30.5881 8.4556L0.988564 38.0551C-0.270066 39.3138 -0.335676 41.2988 0.842454 42.4769L6.01353 47.3793C8.20554 45.1873 11.6412 45.0874 13.6863 47.1325C15.7314 49.1776 15.6316 52.6133 13.4396 54.8053L18.3817 60.0161C19.5598 61.1942 21.5448 61.1286 22.8034 59.87L52.4029 30.2704L50.8608 28.7283L52.2255 27.3636L53.7676 28.9057L59.87 22.8034C61.1286 21.5448 61.1942 19.5598 60.0161 18.3817L54.845 13.4793C52.653 15.6713 49.2174 15.7712 47.1722 13.726V13.726ZM19.2314 29.9653L29.8859 32.3891L27.8918 34.3831L22.3884 33.1223L23.9567 40.0788L24.6638 39.3717L25.2893 41.9628L22.5594 44.7059L19.2314 29.9653H19.2314ZM26.9675 45.5927L24.3883 34.8818L26.9875 35.4727L28.322 41.0216L33.6535 35.69L32.7374 35.481L34.7244 33.494L38.26 34.3002L26.9675 45.5927V45.5927ZM28.9879 38.251L28.3625 35.6598L32.5348 31.4742L25.6398 29.9107L25.8264 30.6771L23.2272 30.0861L22.4218 26.7351L37.1417 30.0706L28.9879 38.251V38.251ZM49.8561 24.9942L48.4914 26.3589L45.4071 23.2746L46.7718 21.9099L49.8561 24.9942ZM44.4023 19.5404L43.0376 20.9051L39.9534 17.8209L41.3181 16.4562L44.4023 19.5404ZM38.9486 14.0867L37.5839 15.4514L34.4997 12.3672L35.8644 11.0025L38.9486 14.0867Z" fill="#E8F5FC"/>
</g>
<defs>
<clipPath id="clip0_668_4786">
<rect width="60.8585" height="60.8585" fill="white"/>
</clipPath>
</defs>
</svg>
