<svg width="61" height="61" viewBox="0 0 61 61" fill="none" xmlns="http://www.w3.org/2000/svg">
<g clip-path="url(#clip0_668_4788)">
<path d="M60.018 18.378L54.8479 13.478C52.6479 15.668 49.218 15.7679 47.168 13.728C45.128 11.678 45.228 8.24798 47.418 6.04797L42.478 0.837938C41.298 -0.332043 39.308 -0.272052 38.058 0.987958L31.948 7.08794L33.498 8.62798L32.128 9.99798L30.5879 8.45794L0.987961 38.058C-0.272049 39.308 -0.332049 41.298 0.837941 42.4779L6.00798 47.378C8.20799 45.188 11.638 45.0879 13.688 47.128C15.728 49.178 15.628 52.6079 13.438 54.808L18.378 60.0179C19.558 61.188 21.548 61.128 22.798 59.868L52.3979 30.2679L50.8579 28.7279L52.228 27.3579L53.768 28.9079L59.868 22.7979C61.128 21.5479 61.188 19.5579 60.018 18.378V18.378ZM11.068 39.678L13.418 37.3379L21.288 40.6679L17.818 32.938L20.138 30.618L25.988 45.5379L11.068 39.6779L11.068 39.678ZM31.7779 38.8279L21.848 28.8979L23.808 26.9479L33.738 36.878L31.7779 38.8279ZM36.298 34.308L26.368 24.378L29.378 21.368C30.198 20.5479 31.0279 19.998 31.868 19.7079C32.708 19.4079 33.5279 19.368 34.328 19.568C35.118 19.7679 35.858 20.2179 36.548 20.8979C36.948 21.298 37.298 21.7679 37.5879 22.298C37.868 22.8279 38.048 23.3979 38.118 23.998C38.188 24.5979 38.0979 25.2179 37.858 25.868C37.608 26.5079 37.168 27.1579 36.518 27.808L35.118 29.2079L38.258 32.3579L36.298 34.308ZM37.578 15.4479L34.498 12.3679L35.868 10.9979L38.948 14.0879L37.578 15.4479ZM43.0379 20.9079L39.948 17.818L41.318 16.4579L44.3979 19.5379L43.0379 20.9079V20.9079ZM48.488 26.3579L45.4079 23.2779L46.768 21.9079L49.858 24.9879L48.488 26.3579V26.3579ZM35.258 24.1679C35.2179 23.8979 35.138 23.6479 35.008 23.4279C34.888 23.2079 34.768 23.0379 34.638 22.9079C34.548 22.8079 34.3979 22.6979 34.198 22.5579C33.998 22.4179 33.768 22.318 33.498 22.2479C33.228 22.1779 32.928 22.1779 32.608 22.2679C32.2879 22.3479 31.958 22.568 31.618 22.9079L30.218 24.3079L33.208 27.3079L34.5979 25.9179C34.8979 25.6179 35.098 25.3179 35.188 25.0179C35.278 24.7179 35.308 24.4379 35.258 24.1679L35.258 24.1679Z" fill="#E8F5FC"/>
</g>
<defs>
<clipPath id="clip0_668_4788">
<rect width="60.8559" height="60.8559" fill="white"/>
</clipPath>
</defs>
</svg>
